# xmcd
#
# Track frame offsets: 
#        150
#        18709
#        42346
#        58996
#        79471
#        95836
#        120386
#        144236
#        167362
#        196017
#
# Disc length: 2878 seconds
#
# Revision: 0
# Processed by: cddbd v1.5.2PL0 Copyright (c) Steve Scherf et al.
# Submitted via: ExactAudioCopyFreeDBPlugin 1.0
#
DISCID=840b3c0a
DTITLE=Amateras Records - Emotionally Resonance
DYEAR=2013
DGENRE=Musical
TTITLE0=幻想Crisis
TTITLE1=Hollow Forgotten World
TTITLE2=燐とした憐れみ
TTITLE3=触れられない優しさ
TTITLE4=サヨナラの距離
TTITLE5=Under The Rose
TTITLE6=Lost Traveler
TTITLE7=Anonther for Happy
TTITLE8=Twinkle Twinkle
TTITLE9=Refined
EXTD=
EXTT0=
EXTT1=
EXTT2=
EXTT3=
EXTT4=
EXTT5=
EXTT6=
EXTT7=
EXTT8=
EXTT9=
PLAYORDER=
